<svg width="122" height="50" viewBox="0 0 122 50" fill="none" xmlns="http://www.w3.org/2000/svg">
<path d="M71.5375 11.4436C71.5375 10.7245 72.0989 10.4444 72.765 10.2856C73.4136 10.1102 74.1856 10.0573 74.607 9.79477C74.6775 11.672 74.2033 12.4782 72.7827 12.4782C72.1166 12.4782 71.5375 12.1804 71.5375 11.4436ZM71.7129 7.76098C71.8529 6.98895 72.379 6.62056 73.204 6.62056C73.8183 6.62056 74.6422 6.88414 74.6422 7.56795C74.6422 8.12937 74.3621 8.30473 73.8526 8.4095C71.7824 8.83083 68.5552 8.60253 68.5552 11.5672C68.5552 13.4444 69.9228 14.3234 71.6599 14.3234C72.7474 14.3234 73.8878 14.0046 74.6588 13.1984C74.6941 13.4962 74.7293 13.7774 74.8342 14.0576H77.833C77.4823 13.3385 77.4823 12.4969 77.4823 11.7249V7.74332C77.4823 5.16469 75.3955 4.69153 73.2382 4.69153C72.2037 4.69153 71.1515 4.86689 70.3441 5.32351C69.5368 5.79667 68.9765 6.56873 68.9236 7.76209H71.7129V7.76098Z" fill="#00A7E1"/>
<path d="M77.4834 14.0573H80.4646V9.5496C80.4646 8.40915 81.2367 7.39227 82.7102 7.39227C83.1139 7.39227 83.4646 7.46287 83.8506 7.56763V4.84892C83.6223 4.79598 83.3774 4.77832 83.1491 4.77832C81.8686 4.77832 80.8517 5.39268 80.4128 6.54964H80.3775V4.95369H77.4834V14.0573Z" fill="#414141"/>
<path d="M85.9576 8.65473C86.133 7.5496 86.8345 6.79519 87.8867 6.79519C88.9389 6.79519 89.605 7.63674 89.658 8.65473H85.9576ZM92.6403 10.3212C92.7803 7.23414 91.1491 4.77905 87.8867 4.77905C85.2032 4.77905 82.9753 6.77864 82.9753 9.56684C82.9753 12.6186 84.9926 14.4109 87.9562 14.4109C89.9911 14.4109 91.9377 13.4955 92.4815 11.3911H89.6922C89.412 12.0573 88.7095 12.3903 87.9904 12.3903C86.7275 12.3903 86.0084 11.5665 85.9555 10.3201H92.6381L92.6403 10.3212Z" fill="#414141"/>
<path d="M92.1086 11.1451C92.1969 13.6885 94.406 14.4109 96.5634 14.4109C98.7207 14.4109 100.931 13.6013 100.931 11.1628C100.931 10.4084 100.458 9.07606 98.6159 8.70767C97.2484 8.40988 95.2487 8.25217 95.2487 7.39189C95.2487 6.75991 96.0384 6.70808 96.5293 6.70808C96.8976 6.70808 97.2305 6.77864 97.4766 6.93639C97.7226 7.0941 97.8627 7.34006 97.8627 7.72607H100.617C100.512 5.35805 98.4239 4.77905 96.4245 4.77905C94.6354 4.77905 92.2675 5.37571 92.2675 7.56837C92.2675 10.0235 94.6178 10.0764 96.4952 10.5507C97.021 10.6731 97.9508 10.8143 97.9508 11.5157C97.9508 12.2172 97.127 12.4808 96.548 12.4808C96.1266 12.4808 95.724 12.376 95.4428 12.1654C95.145 11.937 94.952 11.6039 94.952 11.1484H92.1109L92.1086 11.1451Z" fill="#414141"/>
<path d="M100.277 11.1451C100.366 13.6885 102.575 14.4109 104.732 14.4109C106.89 14.4109 109.1 13.6013 109.1 11.1628C109.1 10.4084 108.627 9.07606 106.785 8.70767C105.417 8.40988 103.418 8.25217 103.418 7.39189C103.418 6.75991 104.207 6.70808 104.698 6.70808C105.066 6.70808 105.399 6.77864 105.645 6.93639C105.892 7.0941 106.032 7.34006 106.032 7.72607H108.785C108.681 5.35805 106.593 4.77905 104.593 4.77905C102.804 4.77905 100.436 5.37571 100.436 7.56837C100.436 10.0235 102.787 10.0764 104.664 10.5507C105.19 10.6731 106.12 10.8143 106.12 11.5157C106.12 12.2172 105.296 12.4808 104.717 12.4808C104.295 12.4808 103.893 12.376 103.612 12.1654C103.314 11.937 103.121 11.6039 103.121 11.1484H100.28L100.277 11.1451Z" fill="#414141"/>
<path d="M63.4847 15.775C63.7747 15.4761 64.0648 15.1761 64.3549 14.8772C64.5589 14.6202 64.5413 14.3897 64.3008 14.1835C61.7266 11.6026 61.3858 7.71696 64.2699 4.70379C64.4762 4.46115 64.485 4.2527 64.2975 4.07844C64.0439 3.82477 63.7902 3.5711 63.5354 3.31632C63.3457 3.11007 63.1273 3.07147 62.8692 3.27551C59.4193 6.68135 59.7634 12.4099 62.8868 15.5974C63.0865 15.8014 63.2861 15.861 63.4858 15.7739L63.4847 15.775Z" fill="#00A7E1"/>
<path d="M114.431 15.775C114.141 15.4761 113.851 15.1761 113.561 14.8772C113.357 14.6202 113.375 14.3897 113.615 14.1835C116.189 11.6026 116.53 7.71696 113.646 4.70379C113.44 4.46115 113.431 4.2527 113.619 4.07844C113.872 3.82477 114.126 3.5711 114.38 3.31632C114.57 3.11007 114.789 3.07147 115.047 3.27551C118.497 6.68135 118.153 12.4099 115.029 15.5974C114.83 15.8014 114.63 15.861 114.43 15.7739L114.431 15.775Z" fill="#00A7E1"/>
<path d="M66.0896 13.1199C66.3796 12.821 66.6697 12.521 66.9598 12.2221C67.1638 11.9651 67.1462 11.7346 66.9057 11.5283C65.6506 10.4376 65.4984 8.48758 66.9598 7.35931C67.166 7.11663 67.1749 6.90825 66.9874 6.73396C66.7337 6.48029 66.48 6.22659 66.2252 5.97181C66.0355 5.76557 65.8171 5.727 65.5591 5.93106C63.5925 7.63507 63.4999 11.1799 65.4907 12.9423C65.6903 13.1464 65.89 13.2059 66.0896 13.1188V13.1199Z" fill="#00A7E1"/>
<path d="M117.08 18.4472C116.789 18.1484 116.499 17.8484 116.209 17.5495C116.005 17.2925 116.023 17.062 116.263 16.8557C120.237 12.6106 120.581 6.33272 116.209 2.03242C116.003 1.78977 115.994 1.58132 116.182 1.40705C116.435 1.15338 116.689 0.899709 116.944 0.644933C117.134 0.438686 117.352 0.400083 117.61 0.604125C122.751 5.58161 122.53 13.2426 117.678 18.2697C117.479 18.4737 117.279 18.5333 117.08 18.4462V18.4472Z" fill="#00A7E1"/>
<path d="M61.0196 18.4475C61.3097 18.1486 61.5998 17.8486 61.8898 17.5497C62.0939 17.2927 62.0762 17.0622 61.8358 16.856C57.8608 12.6108 57.5178 6.33296 61.8898 2.03266C62.0961 1.79002 62.1049 1.58156 61.9174 1.4073C61.6637 1.15363 61.4101 0.899953 61.1553 0.645177C60.9656 0.43893 60.7472 0.400328 60.4891 0.604369C55.3484 5.58185 55.569 13.2428 60.4207 18.2699C60.6204 18.474 60.82 18.5335 61.0196 18.4464V18.4475Z" fill="#00A7E1"/>
<path d="M111.772 13.1195C111.482 12.8206 111.192 12.5206 110.902 12.2218C110.698 11.9648 110.715 11.7342 110.955 11.528C112.211 10.4372 112.363 8.48723 110.902 7.35896C110.695 7.11629 110.686 6.90782 110.874 6.73357C111.128 6.4799 111.381 6.22624 111.635 5.97257C111.825 5.76633 112.043 5.72772 112.301 5.93174C114.268 7.63576 114.36 11.1806 112.369 12.9431C112.17 13.1471 111.97 13.2066 111.771 13.1195H111.772Z" fill="#00A7E1"/>
<path d="M60.2763 19.3696H58.1289V19.8261H58.9385V22.7687H59.4811V19.8261H60.2763V19.3696ZM61.0759 20.1404C60.2708 20.1404 60.1285 20.8541 60.1285 21.5258C60.1285 22.7114 60.648 22.835 61.066 22.835C61.6229 22.835 61.966 22.4776 61.966 21.9118H61.4807C61.4807 22.064 61.4377 22.4831 61.0715 22.4831C60.6855 22.4831 60.6436 22.0452 60.6436 21.7022V21.5545H61.9814V21.2831C61.9814 20.5684 61.7906 20.1404 61.077 20.1404H61.0759ZM61.4663 21.2026H60.6425V21.1508C60.6425 20.8177 60.7428 20.4934 61.0704 20.4934C61.3605 20.4934 61.4652 20.7405 61.4652 21.0647V21.2026H61.4663ZM63.2564 20.5221C63.5564 20.5121 63.6226 20.8221 63.6226 21.0603H64.1365C64.1365 20.7415 64.0218 20.1316 63.2553 20.1416C62.513 20.1416 62.3035 20.6942 62.3035 21.4894C62.3035 22.2846 62.513 22.8372 63.2553 22.8372C63.8884 22.8372 64.0979 22.4511 64.131 21.8368H63.6457C63.6457 22.2228 63.5409 22.46 63.2553 22.4555C62.8836 22.4555 62.8174 22.0552 62.8174 21.4894C62.8174 20.9236 62.8836 20.5232 63.2553 20.5232L63.2564 20.5221ZM65.6464 20.1404C65.385 20.1404 65.1611 20.2739 65.0178 20.4923L65.0034 20.4824V19.3684H64.4895V22.7676H65.0034V21.0493C65.0034 20.7162 65.203 20.5496 65.4126 20.5496C65.6696 20.5496 65.7699 20.6787 65.7699 21.0118V22.7687H66.2839V20.8354C66.2839 20.3159 66.0369 20.1404 65.6464 20.1404ZM67.9361 20.1404C67.6504 20.1404 67.4078 20.2784 67.2788 20.5067H67.2644V20.2066H66.7791V22.7676H67.2931V21.0493C67.2931 20.7162 67.4927 20.5496 67.7023 20.5496C67.9593 20.5496 68.0596 20.6787 68.0596 21.0118V22.7687H68.5736V20.8354C68.5736 20.3159 68.3265 20.1404 67.9361 20.1404ZM69.9214 20.1404C69.1791 20.1404 68.9696 20.693 68.9696 21.4883C68.9696 22.2835 69.2122 22.8361 69.9214 22.8361C70.6306 22.8361 70.8787 22.2835 70.8787 21.4883C70.8787 20.693 70.6692 20.1404 69.9214 20.1404ZM69.9214 22.4545C69.5497 22.4545 69.4835 22.1401 69.4835 21.4883C69.4835 20.9213 69.5497 20.5221 69.9214 20.5221C70.293 20.5221 70.3636 20.9224 70.3636 21.4883C70.3636 22.1401 70.2975 22.4545 69.9214 22.4545ZM71.2978 22.7687H71.8118V19.3696H71.2978V22.7687ZM73.1827 20.1404C72.4405 20.1404 72.2309 20.693 72.2309 21.4883C72.2309 22.2835 72.4735 22.8361 73.1827 22.8361C73.8919 22.8361 74.1401 22.2835 74.1401 21.4883C74.1401 20.693 73.9305 20.1404 73.1827 20.1404ZM73.1827 22.4545C72.811 22.4545 72.7449 22.1401 72.7449 21.4883C72.7449 20.9213 72.811 20.5221 73.1827 20.5221C73.5544 20.5221 73.625 20.9224 73.625 21.4883C73.625 22.1401 73.5588 22.4545 73.1827 22.4545ZM75.8816 20.5221H75.8717C75.8242 20.3368 75.6103 20.1416 75.3102 20.1416C74.5823 20.1416 74.4963 20.8982 74.4963 21.4607C74.4963 22.161 74.6628 22.7511 75.2628 22.7511C75.5099 22.7511 75.7481 22.6221 75.8441 22.3993H75.854V22.814C75.854 23.1095 75.6874 23.2948 75.4206 23.2948C75.1923 23.2948 75.0489 23.1471 75.0489 22.9905H74.5636C74.5636 23.2 74.6496 23.6478 75.4106 23.6478C76.1011 23.6478 76.368 23.2717 76.368 22.6474V20.21H75.8827V20.5243L75.8816 20.5221ZM75.4106 22.3397C75.0301 22.3397 75.0103 21.8445 75.0103 21.4066C75.0103 20.9302 75.072 20.5496 75.4437 20.5496C75.8154 20.5496 75.8529 21.0118 75.8529 21.4309C75.8529 21.85 75.8099 22.3397 75.4106 22.3397ZM77.6198 22.1313H77.6098L77.1676 20.2078H76.615L77.343 22.8261L77.2768 23.0356C77.2194 23.1978 77.1058 23.2353 76.9294 23.2353C76.872 23.2353 76.8202 23.2253 76.7628 23.2165V23.6257C76.829 23.6356 76.9007 23.6444 76.968 23.6444C77.4963 23.6544 77.6628 23.564 77.8636 22.8636L78.5683 20.2066H78.0301L77.6209 22.1302L77.6198 22.1313ZM80.633 19.4787H80.119V20.2066H79.7672V20.5872H80.119V22.1776C80.119 22.7015 80.29 22.7963 80.6385 22.7963C80.8006 22.7963 80.9429 22.782 81.0532 22.7533V22.3728C81.0058 22.3827 80.944 22.3871 80.8679 22.3871C80.6914 22.3871 80.6341 22.3154 80.6341 22.1158V20.5872H81.0532V20.2066H80.6341V19.4787H80.633ZM82.476 20.1404C82.2146 20.1404 81.9907 20.2739 81.8473 20.4923L81.833 20.4824V19.3684H81.319V22.7676H81.833V21.0493C81.833 20.7162 82.0326 20.5496 82.2422 20.5496C82.4991 20.5496 82.5995 20.6787 82.5995 21.0118V22.7687H83.1135V20.8354C83.1135 20.3159 82.8664 20.1404 82.476 20.1404ZM85.2895 22.236V20.7691C85.2895 20.3169 84.9278 20.1404 84.4756 20.1404C83.7995 20.1404 83.5756 20.4405 83.5756 20.9831H84.0609C84.0609 20.736 84.1083 20.4923 84.4513 20.4923C84.7226 20.4923 84.8032 20.6401 84.8032 20.8728C84.8032 21.1055 84.6884 21.1486 84.5031 21.2015L84.1028 21.3107C83.7554 21.4254 83.5072 21.5445 83.5072 22.1158C83.5072 22.6066 83.7642 22.835 84.1734 22.835C84.4734 22.835 84.673 22.7114 84.8109 22.4589H84.8208C84.8351 22.7059 85.026 22.7963 85.2543 22.7963C85.3546 22.7963 85.4451 22.7632 85.5068 22.7346V22.4015C85.488 22.4114 85.455 22.4158 85.4208 22.4158C85.3447 22.4158 85.2873 22.3298 85.2873 22.2349L85.2895 22.236ZM84.8032 21.8456C84.8032 22.2217 84.6509 22.4555 84.341 22.4555C84.1271 22.4555 84.0223 22.2846 84.0223 22.0695C84.0223 21.8787 84.084 21.7265 84.2318 21.6548C84.384 21.5831 84.6697 21.5214 84.8032 21.4166V21.8456ZM86.4509 19.4787H85.937V20.2066H85.5851V20.5872H85.937V22.1776C85.937 22.7015 86.1079 22.7963 86.4564 22.7963C86.6186 22.7963 86.7608 22.782 86.8711 22.7533V22.3728C86.8237 22.3827 86.762 22.3871 86.6858 22.3871C86.5094 22.3871 86.452 22.3154 86.452 22.1158V20.5872H86.8711V20.2066H86.452V19.4787H86.4509ZM88.2884 22.7687H88.831V19.3696H88.2884V22.7687ZM91.7163 20.1404C91.4064 20.1404 91.2167 20.2828 91.0688 20.5309C90.9928 20.3169 90.8405 20.1404 90.4733 20.1404C90.2306 20.1404 89.988 20.2784 89.8589 20.5067H89.8446V20.2066H89.3593V22.7676H89.8733V21.0493C89.8733 20.7162 90.0729 20.5496 90.2781 20.5496C90.4832 20.5496 90.5924 20.6787 90.5924 21.0118V22.7687H91.1064V21.0504C91.1064 20.7173 91.306 20.5507 91.5155 20.5507C91.7251 20.5507 91.8255 20.6798 91.8255 21.0129V22.7698H92.3394V20.8221C92.3394 20.3268 92.078 20.1416 91.7163 20.1416V20.1404ZM93.9299 20.1404C93.6486 20.1404 93.4589 20.2927 93.3541 20.521H93.3442V20.2066H92.8589V23.6059H93.3729V22.4676H93.3828C93.4777 22.6959 93.6872 22.8338 93.964 22.8338C94.3159 22.8338 94.7548 22.5956 94.7548 21.5202C94.7548 20.639 94.5166 20.1394 93.9309 20.1394L93.9299 20.1404ZM93.7821 22.4258C93.4203 22.4258 93.3442 22.0739 93.3442 21.4596C93.3442 20.9125 93.4247 20.5507 93.7776 20.5507C94.1306 20.5507 94.2111 20.917 94.2111 21.4982C94.2111 22.2074 94.0777 22.4269 93.7821 22.4269V22.4258ZM96.8293 22.236V20.7691C96.8293 20.3169 96.4678 20.1404 96.0155 20.1404C95.3394 20.1404 95.1155 20.4405 95.1155 20.9831H95.6008C95.6008 20.736 95.6482 20.4923 95.9912 20.4923C96.2625 20.4923 96.3431 20.6401 96.3431 20.8728C96.3431 21.1055 96.2284 21.1486 96.0431 21.2015L95.6427 21.3107C95.2953 21.4254 95.0471 21.5445 95.0471 22.1158C95.0471 22.6066 95.3041 22.835 95.7133 22.835C96.0133 22.835 96.2129 22.7114 96.3508 22.4589H96.3607C96.375 22.7059 96.5658 22.7963 96.794 22.7963C96.8944 22.7963 96.9849 22.7632 97.0468 22.7346V22.4015C97.0277 22.4114 96.9948 22.4158 96.9607 22.4158C96.8845 22.4158 96.8273 22.3298 96.8273 22.2349L96.8293 22.236ZM96.3431 21.8456C96.3431 22.2217 96.1909 22.4555 95.8809 22.4555C95.667 22.4555 95.5622 22.2846 95.5622 22.0695C95.5622 21.8787 95.6239 21.7265 95.7718 21.6548C95.9239 21.5831 96.2096 21.5214 96.3431 21.4166V21.8456ZM98.2048 20.5221C98.5048 20.5121 98.5711 20.8221 98.5711 21.0603H99.085C99.085 20.7415 98.9703 20.1316 98.2036 20.1416C97.4615 20.1416 97.252 20.6942 97.252 21.4894C97.252 22.2846 97.4615 22.8372 98.2036 22.8372C98.8366 22.8372 99.0461 22.4511 99.0794 21.8368H98.5941C98.5941 22.2228 98.4893 22.46 98.2036 22.4555C97.8317 22.4555 97.7659 22.0552 97.7659 21.4894C97.7659 20.9236 97.8317 20.5232 98.2036 20.5232L98.2048 20.5221ZM100.104 19.4787H99.5902V20.2066H99.2382V20.5872H99.5902V22.1776C99.5902 22.7015 99.7608 22.7963 100.11 22.7963C100.272 22.7963 100.414 22.782 100.524 22.7533V22.3728C100.477 22.3827 100.415 22.3871 100.339 22.3871C100.162 22.3871 100.105 22.3154 100.105 22.1158V20.5872H100.524V20.2066H100.105V19.4787H100.104ZM101.88 21.3162L101.551 21.2015C101.28 21.1066 101.189 21.0251 101.189 20.8254C101.189 20.5872 101.351 20.4923 101.555 20.4923C101.822 20.4923 101.893 20.6831 101.893 20.8872V20.9533H102.378V20.8386C102.378 20.5199 102.23 20.1383 101.578 20.1383C101.05 20.1383 100.703 20.3622 100.703 20.843C100.703 21.2522 100.865 21.4475 101.25 21.5809L101.669 21.7287C101.85 21.7905 101.95 21.914 101.95 22.1048C101.95 22.3386 101.813 22.4809 101.531 22.4809C101.235 22.4809 101.131 22.3187 101.131 22.0243V21.9438H100.674V22.0386C100.674 22.5338 100.869 22.8338 101.517 22.8338C102.036 22.8338 102.436 22.6 102.436 22.053C102.436 21.6482 102.259 21.443 101.878 21.3151L101.88 21.3162ZM105.508 20.9743V20.9644C105.846 20.8596 106.008 20.607 106.008 20.1934C106.008 19.5934 105.599 19.3696 105.094 19.3696H103.994V22.7687H105.071C105.708 22.7687 106.118 22.407 106.118 21.8401C106.118 21.2732 105.88 21.0405 105.508 20.9732V20.9743ZM104.536 19.7787H104.917C105.221 19.7787 105.464 19.8592 105.464 20.264C105.464 20.5828 105.293 20.8023 104.965 20.8023H104.536V19.7787H104.536ZM105.075 22.3596H104.536V21.1838H105.042C105.356 21.1838 105.575 21.3934 105.575 21.7596C105.575 22.15 105.398 22.3596 105.075 22.3596ZM107.798 21.9978C107.798 22.2835 107.599 22.4269 107.379 22.4269C107.159 22.4269 107.031 22.332 107.031 22.0463V20.2089H106.518V21.9989C106.518 22.6607 106.774 22.8372 107.155 22.8372C107.441 22.8372 107.683 22.6993 107.812 22.471H107.827V22.7709H108.312V20.21H107.798V22V21.9978ZM109.897 21.3162L109.568 21.2015C109.297 21.1066 109.207 21.0251 109.207 20.8254C109.207 20.5872 109.368 20.4923 109.572 20.4923C109.84 20.4923 109.91 20.6831 109.91 20.8872V20.9533H110.396V20.8386C110.396 20.5199 110.247 20.1383 109.596 20.1383C109.067 20.1383 108.72 20.3622 108.72 20.843C108.72 21.2522 108.882 21.4475 109.267 21.5809L109.686 21.7287C109.867 21.7905 109.967 21.914 109.967 22.1048C109.967 22.3386 109.83 22.4809 109.548 22.4809C109.253 22.4809 109.148 22.3187 109.148 22.0243V21.9438H108.691V22.0386C108.691 22.5338 108.887 22.8338 109.534 22.8338C110.053 22.8338 110.453 22.6 110.453 22.053C110.453 21.6482 110.276 21.443 109.896 21.3151L109.897 21.3162ZM110.859 19.846H111.373V19.332H110.859V19.846ZM110.859 22.7687H111.373V20.2078H110.859V22.7687ZM113.049 20.1404C112.763 20.1404 112.521 20.2784 112.392 20.5067H112.377V20.2066H111.892V22.7676H112.406V21.0493C112.406 20.7162 112.606 20.5496 112.815 20.5496C113.072 20.5496 113.173 20.6787 113.173 21.0118V22.7687H113.687V20.8354C113.687 20.3159 113.439 20.1404 113.049 20.1404ZM115.057 20.1404C114.252 20.1404 114.11 20.8541 114.11 21.5258C114.11 22.7114 114.629 22.835 115.047 22.835C115.605 22.835 115.947 22.4776 115.947 21.9118H115.462C115.462 22.064 115.419 22.4831 115.053 22.4831C114.667 22.4831 114.624 22.0452 114.624 21.7022V21.5545H115.962V21.2831C115.962 20.5684 115.771 20.1404 115.057 20.1404ZM115.448 21.2026H114.624V21.1508C114.624 20.8177 114.724 20.4934 115.053 20.4934C115.343 20.4934 115.448 20.7405 115.448 21.0647V21.2026ZM117.476 21.3162L117.147 21.2015C116.876 21.1066 116.786 21.0251 116.786 20.8254C116.786 20.5872 116.948 20.4923 117.152 20.4923C117.419 20.4923 117.49 20.6831 117.49 20.8872V20.9533H117.974V20.8386C117.974 20.5199 117.827 20.1383 117.175 20.1383C116.647 20.1383 116.299 20.3622 116.299 20.843C116.299 21.2522 116.461 21.4475 116.846 21.5809L117.265 21.7287C117.446 21.7905 117.547 21.914 117.547 22.1048C117.547 22.3386 117.409 22.4809 117.128 22.4809C116.832 22.4809 116.727 22.3187 116.727 22.0243V21.9438H116.271V22.0386C116.271 22.5338 116.466 22.8338 117.113 22.8338C117.633 22.8338 118.032 22.6 118.032 22.053C118.032 21.6482 117.855 21.443 117.475 21.3151L117.476 21.3162ZM119.504 21.3162L119.176 21.2015C118.904 21.1066 118.814 21.0251 118.814 20.8254C118.814 20.5872 118.976 20.4923 119.18 20.4923C119.447 20.4923 119.518 20.6831 119.518 20.8872V20.9533H120.003V20.8386C120.003 20.5199 119.855 20.1383 119.204 20.1383C118.675 20.1383 118.328 20.3622 118.328 20.843C118.328 21.2522 118.49 21.4475 118.875 21.5809L119.294 21.7287C119.475 21.7905 119.575 21.914 119.575 22.1048C119.575 22.3386 119.437 22.4809 119.156 22.4809C118.86 22.4809 118.755 22.3187 118.755 22.0243V21.9438H118.299V22.0386C118.299 22.5338 118.494 22.8338 119.142 22.8338C119.661 22.8338 120.06 22.6 120.06 22.053C120.06 21.6482 119.884 21.443 119.503 21.3151L119.504 21.3162Z" fill="#231F20"/>
<path d="M0 9.28644C0 4.15768 4.15768 0 9.28644 0H40.2413C45.37 0 49.5277 4.15768 49.5277 9.28644V40.2413C49.5277 45.37 45.37 49.5277 40.2413 49.5277H9.28644C4.15768 49.5277 0 45.37 0 40.2413V9.28644Z" fill="#004D91"/>
<path d="M14.9352 12.0687C14.9352 13.6285 13.6707 14.8929 12.1109 14.8929C10.5511 14.8929 9.28662 13.6285 9.28662 12.0687C9.28662 10.5089 10.5511 9.24438 12.1109 9.24438C13.6707 9.24438 14.9352 10.5089 14.9352 12.0687Z" fill="#EE584C"/>
<path d="M9.28662 19.8244C9.28662 18.0418 10.7317 16.5967 12.5144 16.5967H22.1976C23.9802 16.5967 25.4253 18.0418 25.4253 19.8244C25.4253 21.607 23.9802 23.0521 22.1975 23.0521H12.5144C10.7317 23.0521 9.28662 21.607 9.28662 19.8244Z" fill="white"/>
<path d="M16.0337 28.4401C16.0337 26.6575 17.4788 25.2124 19.2614 25.2124H37.014C38.7966 25.2124 40.2417 26.6575 40.2417 28.4401C40.2417 30.2228 38.7966 31.6679 37.014 31.6679H19.2614C17.4788 31.6679 16.0337 30.2228 16.0337 28.4401Z" fill="#1ACEDF"/>
<path d="M9.28662 37.0559C9.28662 35.2732 10.7317 33.8281 12.5144 33.8281H18.1629C19.9455 33.8281 21.3906 35.2732 21.3906 37.0559C21.3906 38.8385 19.9455 40.2836 18.1629 40.2836H12.5144C10.7317 40.2836 9.28662 38.8385 9.28662 37.0559Z" fill="#A6C1D9"/>
<path d="M116.311 44.1295C116.311 43.7954 116.245 43.4911 116.114 43.2167C115.982 42.9303 115.762 42.6738 115.451 42.4471C115.153 42.2204 114.747 42.0056 114.234 41.8027C113.721 41.5999 113.083 41.409 112.319 41.23C111.007 40.9198 109.867 40.5797 108.901 40.2098C107.946 39.828 107.153 39.3924 106.52 38.9032C105.9 38.4021 105.434 37.8055 105.124 37.1134C104.814 36.4213 104.659 35.6099 104.659 34.6792C104.659 33.7843 104.856 32.961 105.249 32.2093C105.643 31.4575 106.198 30.8132 106.914 30.2763C107.63 29.7393 108.477 29.3217 109.456 29.0234C110.434 28.7251 111.502 28.5759 112.659 28.5759C114.342 28.5759 115.827 28.8384 117.116 29.3635C118.417 29.8885 119.431 30.6342 120.159 31.6007C120.887 32.5553 121.25 33.7068 121.25 35.0551H116.096C116.096 34.5539 115.959 34.0946 115.684 33.6769C115.422 33.2593 115.04 32.9252 114.539 32.6746C114.037 32.4121 113.417 32.2809 112.677 32.2809C111.961 32.2809 111.371 32.3942 110.905 32.6209C110.44 32.8357 110.094 33.1161 109.867 33.4621C109.652 33.7963 109.545 34.1423 109.545 34.5002C109.545 34.7986 109.611 35.073 109.742 35.3236C109.885 35.5741 110.106 35.8068 110.404 36.0216C110.714 36.2244 111.114 36.4213 111.603 36.6122C112.104 36.7912 112.707 36.9702 113.411 37.1492C114.724 37.4356 115.863 37.7756 116.83 38.1694C117.808 38.5512 118.619 39.0106 119.264 39.5476C119.92 40.0845 120.409 40.7229 120.731 41.4627C121.054 42.1905 121.215 43.0317 121.215 43.9863C121.215 44.9409 121.018 45.794 120.624 46.5458C120.242 47.2856 119.687 47.912 118.96 48.4251C118.244 48.9382 117.378 49.3319 116.364 49.6064C115.362 49.8689 114.24 50.0001 112.999 50.0001C111.89 50.0001 110.798 49.8689 109.724 49.6064C108.65 49.3439 107.678 48.9382 106.807 48.3893C105.936 47.8285 105.238 47.1125 104.712 46.2415C104.199 45.3705 103.943 44.3264 103.943 43.1093H109.115C109.115 43.682 109.199 44.1713 109.366 44.577C109.545 44.9827 109.808 45.3168 110.154 45.5793C110.512 45.8298 110.947 46.0148 111.46 46.1341C111.985 46.2534 112.588 46.3131 113.268 46.3131C114.032 46.3131 114.634 46.2057 115.076 45.9909C115.529 45.7642 115.845 45.4838 116.024 45.1497C116.215 44.8156 116.311 44.4755 116.311 44.1295Z" fill="#414141"/>
<path d="M79.5816 28.8624H83.8414L89.0319 43.1273L94.2403 28.8624H98.4821L90.7501 49.7139H87.3315L79.5816 28.8624ZM77.04 28.8624H81.3893L82.2126 45.2035V49.7139H77.04V28.8624ZM96.6923 28.8624H101.077V49.7139H95.8869V45.2035L96.6923 28.8624Z" fill="#414141"/>
<path d="M65.4256 42.7515H59.8055V38.7244H65.4256C66.2131 38.7244 66.8634 38.611 67.3765 38.3843C67.8895 38.1457 68.2654 37.8294 68.5041 37.4357C68.7546 37.03 68.8799 36.5706 68.8799 36.0575C68.8799 35.4967 68.7546 34.9777 68.5041 34.5004C68.2654 34.0231 67.8895 33.6413 67.3765 33.3549C66.8634 33.0566 66.2131 32.9074 65.4256 32.9074H61.7206V49.7139H56.5659V28.8624H65.4256C67.2154 28.8624 68.7487 29.1727 70.0254 29.7931C71.3141 30.4136 72.2985 31.2608 72.9786 32.3347C73.6707 33.4086 74.0167 34.6376 74.0167 36.0217C74.0167 37.024 73.8198 37.9428 73.4261 38.7781C73.0442 39.6014 72.4775 40.3113 71.7257 40.9079C70.9859 41.5046 70.0851 41.9639 69.0231 42.2861C67.9731 42.5963 66.7739 42.7515 65.4256 42.7515Z" fill="#414141"/>
</svg>
