<svg width="40" height="40" viewBox="0 0 49.5277 49.5277" fill="none" xmlns="http://www.w3.org/2000/svg">
  <path d="M0 9.28644C0 4.15768 4.15768 0 9.28644 0H40.2413C45.37 0 49.5277 4.15768 49.5277 9.28644V40.2413C49.5277 45.37 45.37 49.5277 40.2413 49.5277H9.28644C4.15768 49.5277 0 45.37 0 40.2413V9.28644Z" fill="#004D91"/>
  <path d="M14.9352 12.0687C14.9352 13.6285 13.6707 14.8929 12.1109 14.8929C10.5511 14.8929 9.28662 13.6285 9.28662 12.0687C9.28662 10.5089 10.5511 9.24438 12.1109 9.24438C13.6707 9.24438 14.9352 10.5089 14.9352 12.0687Z" fill="#EE584C"/>
  <path d="M9.28662 19.8244C9.28662 18.0418 10.7317 16.5967 12.5144 16.5967H22.1976C23.9802 16.5967 25.4253 18.0418 25.4253 19.8244C25.4253 21.607 23.9802 23.0521 22.1975 23.0521H12.5144C10.7317 23.0521 9.28662 21.607 9.28662 19.8244Z" fill="white"/>
  <path d="M16.0337 28.4401C16.0337 26.6575 17.4788 25.2124 19.2614 25.2124H37.014C38.7966 25.2124 40.2417 26.6575 40.2417 28.4401C40.2417 30.2228 38.7966 31.6679 37.014 31.6679H19.2614C17.4788 31.6679 16.0337 30.2228 16.0337 28.4401Z" fill="#1ACEDF"/>
  <path d="M9.28662 37.0559C9.28662 35.2732 10.7317 33.8281 12.5144 33.8281H18.1629C19.9455 33.8281 21.3906 35.2732 21.3906 37.0559C21.3906 38.8385 19.9455 40.2836 18.1629 40.2836H12.5144C10.7317 40.2836 9.28662 38.8385 9.28662 37.0559Z" fill="#A6C1D9"/>
</svg>
